<svg xmlns="http://www.w3.org/2000/svg" xmlns:xlink="http://www.w3.org/1999/xlink" class="svg-defs">
    <symbol id="icon-about" viewBox="0 0 70 60" width="70" height="60">
        <g fill="none" stroke="currentColor" stroke-width="2" stroke-linejoin="round">
            <path d="M9 1h33v58H9zm-.31 30.15L5 33v25m37-47.46l3.9 1.67V59M9.97 50.09H42M15 1v49M36 1v49"/>
            <ellipse cx="60.35" cy="34.75" rx="8.88" ry="14.18"/>
            <path d="M60 35v24m-4.45-20.27l4.39 4.38m4.18.11l-3.81 3.8M.22 59H65.4M21.95 1v48.53M29 1v49m-14 0h22m-22-7h22m-22-7h22m-22-7h22m-22-7h22m-22-7h22M15 8h22M14.15 50.09h21.72"/>
        </g>
    </symbol>
    
    <symbol id="icon-services" viewBox="0 0 75 60" width="75" height="60">
         <g fill="currentColor">
            <path d="M68 52h-2V42h-4v-2h5a1 1 0 0 1 1 1zm-39 0h-2V41a1 1 0 0 1 1-1h5v2h-4zM14.4 32.3l-5.55-5.55a1 1 0 0 1-.06-1.46l5.6-5.6 1.41 1.41-4.88 4.9 4.89 4.89zm10.73 0l-1.42-1.41L28.59 26l-4.88-4.89 1.42-1.41 5.58 5.59a1 1 0 0 1 0 1.41zm-7.292-.875l1.865-11.185 1.973.33-1.866 11.184z"/>
            <path d="M38 49H1a1 1 0 0 1-1-1V7a7 7 0 0 1 7-7h37a1 1 0 1 1 0 2 5 5 0 0 0-5 5v10h-2V7a7 7 0 0 1 2.11-5H7a5 5 0 0 0-5 5v40h35v-3h2v4a1 1 0 0 1-1 1z"/>
            <path d="M37 23h2v14.67h-2zm12-9H38v-2h10V7a5 5 0 0 0-5-5h-7V0h7a7 7 0 0 1 7 7v6a1 1 0 0 1-1 1z"/>
            <path d="M48 50.75a1 1 0 0 1-.53-.15l-14-8.75a1 1 0 0 1 0-1.7l14-8.75a1 1 0 0 1 1.06 0l14 8.75a1 1 0 0 1 0 1.7l-14 8.75a1 1 0 0 1-.53.15zM35.89 41L48 48.57 60.11 41 48 33.43zM57 24H39a4 4 0 0 1 0-8h18a4 4 0 0 1 0 8zm-18-6a2 2 0 0 0 0 4h18a2 2 0 0 0 0-4zm35 42H60a1 1 0 0 1-1-1v-7a1 1 0 0 1 1-1h14a1 1 0 0 1 1 1v7a1 1 0 0 1-1 1zm-13-2h12v-5H61zm-26 2H21a1 1 0 0 1-1-1v-7a1 1 0 0 1 1-1h14a1 1 0 0 1 1 1v7a1 1 0 0 1-1 1zm-13-2h12v-5H22z"/>
            <path d="M47 24h2v9h-2z"/>
        </g>
    </symbol>
    
    <symbol id="icon-solutions" viewBox="0 0 81 61" width="81" height="61">
        <g fill="none" stroke="currentColor" stroke-width="2" stroke-linejoin="round">
            <path d="M57.17 47H5a4.18 4.18 0 0 1-4-4.21V5a4 4 0 0 1 4-4h60.69A4.28 4.28 0 0 1 70 5v17M1.16 38.87l55.84.15"/>
            <path d="M12.08 27.43L23 16l8.16 7.8L41 14l7.14 6.36 9.35-9.34m-8.4 46.17c-2.53 0-4.09-2.05-4.09-4.58v-5.72H34.21L26 47v6a4.1 4.1 0 0 1-4.38 4.19A3.09 3.09 0 0 0 19 60h32c0-1.26-.64-2.81-1.91-2.81zM60.81 22H76.3a3.7 3.7 0 0 1 3.7 3.7V54a4 4 0 0 1-4 4H61.1a4 4 0 0 1-4-4V25.7a3.7 3.7 0 0 1 3.71-3.7zM57 50h22"/>
        </g>
        <g stroke="none" fill="currentColor">
            <circle cx="35" cy="43" r="2" />
            <circle cx="11" cy="28" r="2" />
            <circle cx="23" cy="16" r="2" />
            <circle cx="31" cy="24" r="2" />
            <circle cx="41" cy="13" r="2" />
            <circle cx="48" cy="21" r="2" />
            <circle cx="59" cy="10" r="2" />
        </g>
        <path fill="none" stroke="currentColor" stroke-width="2" d="M62 29h11m-9 5h11m-13 5h11m-9 5h11" stroke-linejoin="round"/>
    </symbol>
    
    <svg id="icon-team" viewBox="0 0 67 60" width="67" height="60">
        <g fill="none" stroke="currentColor" stroke-width="2">
            <path stroke-miterlimit="10" d="M28.54 36h5.05A10.72 10.72 0 0 1 44 46.67v12.34H1V46.67a10.38 10.38 0 0 1 10.21-10.54h6.88M33.6 22.44a11.18 11.18 0 0 1-11.05 9.5A11.18 11.18 0 0 1 11.4 21.68m-.04-7.8v-1.72A11.18 11.18 0 0 1 22.54 1a11.18 11.18 0 0 1 11.18 11.16v1.72m-22.36 8.6h-.86a1.72 1.72 0 0 1-1.72-1.72V15.6a1.72 1.72 0 0 1 1.72-1.72h.86"/>
            <path stroke-miterlimit="10" d="M33.72 13.88h.86a1.72 1.72 0 0 1 1.72 1.72v5.16a1.72 1.72 0 0 1-1.72 1.72H33.1"/>
            <path d="M12.22 13s12.9.86 15.48-6.88a8 8 0 0 0 5.34 7" stroke-linejoin="round"/>
            <path stroke-miterlimit="10" d="M17.98 31.16l.04 5.79m10.08-5.77v5.46"/>
            <path d="M14.04 16.05h6v4.96h-6zm11-.04h6v5h-6z" stroke-linejoin="round"/>
            <path stroke-miterlimit="10" d="M20.93 19.05h3m12.55 17.48a4 4 0 0 1 2.46-.53h4.66m8.94 0h4.83A8.63 8.63 0 0 1 66 44.56V56H44.29M56.9 24.26a9.23 9.23 0 0 1-9.13 7.84 9.94 9.94 0 0 1-9.61-8.46"/>
            <path d="M34.76 12.43a13.36 13.36 0 0 1 26.37 3v5.69a13.89 13.89 0 0 0 2.54 5.91H56.1c1-.83.9-3.35.9-3.35v-8.23a7.78 7.78 0 0 1-5-5.8c-2.1 6.35-15.21 5.7-15.21 5.7" stroke-linejoin="round"/>
            <path d="M37.93 15.64v8.26S38 26.29 39 27.11h-7.88" stroke-linejoin="round"/>
            <path stroke-miterlimit="10" d="M43.96 31.09v5.86m8.07-5.88v5.95M31.12 50.95h5.8m-7.75-14.68c0 4.18-2.75 6.73-6.17 6.73a6.12 6.12 0 0 1-6.12-6.12m37.41-.11a6.19 6.19 0 0 1-12.37 0"/>
        </g>
    </svg>

</svg>