<svg xmlns="http://www.w3.org/2000/svg" xmlns:xlink="http://www.w3.org/1999/xlink" class="svg-defs">
    <symbol id="icon-about" viewBox="0 0 70 60" width="70" height="60">
        <g fill="none" stroke="currentColor" stroke-width="2" stroke-linejoin="round">
            <path d="M9 1h33v58H9zm-.31 30.15L5 33v25m37-47.46l3.9 1.67V59M9.97 50.09H42M15 1v49M36 1v49"/>
            <ellipse cx="60.35" cy="34.75" rx="8.88" ry="14.18"/>
            <path d="M60 35v24m-4.45-20.27l4.39 4.38m4.18.11l-3.81 3.8M.22 59H65.4M21.95 1v48.53M29 1v49m-14 0h22m-22-7h22m-22-7h22m-22-7h22m-22-7h22m-22-7h22M15 8h22M14.15 50.09h21.72"/>
        </g>
    </symbol>

    <symbol id="icon-services" viewBox="0 0 75 60" width="75" height="60">
         <g fill="currentColor">
            <path d="M68 52h-2V42h-4v-2h5a1 1 0 0 1 1 1zm-39 0h-2V41a1 1 0 0 1 1-1h5v2h-4zM14.4 32.3l-5.55-5.55a1 1 0 0 1-.06-1.46l5.6-5.6 1.41 1.41-4.88 4.9 4.89 4.89zm10.73 0l-1.42-1.41L28.59 26l-4.88-4.89 1.42-1.41 5.58 5.59a1 1 0 0 1 0 1.41zm-7.292-.875l1.865-11.185 1.973.33-1.866 11.184z"/>
            <path d="M38 49H1a1 1 0 0 1-1-1V7a7 7 0 0 1 7-7h37a1 1 0 1 1 0 2 5 5 0 0 0-5 5v10h-2V7a7 7 0 0 1 2.11-5H7a5 5 0 0 0-5 5v40h35v-3h2v4a1 1 0 0 1-1 1z"/>
            <path d="M37 23h2v14.67h-2zm12-9H38v-2h10V7a5 5 0 0 0-5-5h-7V0h7a7 7 0 0 1 7 7v6a1 1 0 0 1-1 1z"/>
            <path d="M48 50.75a1 1 0 0 1-.53-.15l-14-8.75a1 1 0 0 1 0-1.7l14-8.75a1 1 0 0 1 1.06 0l14 8.75a1 1 0 0 1 0 1.7l-14 8.75a1 1 0 0 1-.53.15zM35.89 41L48 48.57 60.11 41 48 33.43zM57 24H39a4 4 0 0 1 0-8h18a4 4 0 0 1 0 8zm-18-6a2 2 0 0 0 0 4h18a2 2 0 0 0 0-4zm35 42H60a1 1 0 0 1-1-1v-7a1 1 0 0 1 1-1h14a1 1 0 0 1 1 1v7a1 1 0 0 1-1 1zm-13-2h12v-5H61zm-26 2H21a1 1 0 0 1-1-1v-7a1 1 0 0 1 1-1h14a1 1 0 0 1 1 1v7a1 1 0 0 1-1 1zm-13-2h12v-5H22z"/>
            <path d="M47 24h2v9h-2z"/>
        </g>
    </symbol>

    <symbol id="icon-solutions" viewBox="0 0 81 61" width="81" height="61">
        <g fill="none" stroke="currentColor" stroke-width="2" stroke-linejoin="round">
            <path d="M57.17 47H5a4.18 4.18 0 0 1-4-4.21V5a4 4 0 0 1 4-4h60.69A4.28 4.28 0 0 1 70 5v17M1.16 38.87l55.84.15"/>
            <path d="M12.08 27.43L23 16l8.16 7.8L41 14l7.14 6.36 9.35-9.34m-8.4 46.17c-2.53 0-4.09-2.05-4.09-4.58v-5.72H34.21L26 47v6a4.1 4.1 0 0 1-4.38 4.19A3.09 3.09 0 0 0 19 60h32c0-1.26-.64-2.81-1.91-2.81zM60.81 22H76.3a3.7 3.7 0 0 1 3.7 3.7V54a4 4 0 0 1-4 4H61.1a4 4 0 0 1-4-4V25.7a3.7 3.7 0 0 1 3.71-3.7zM57 50h22"/>
        </g>
        <g stroke="none" fill="currentColor">
            <circle cx="35" cy="43" r="2" />
            <circle cx="11" cy="28" r="2" />
            <circle cx="23" cy="16" r="2" />
            <circle cx="31" cy="24" r="2" />
            <circle cx="41" cy="13" r="2" />
            <circle cx="48" cy="21" r="2" />
            <circle cx="59" cy="10" r="2" />
        </g>
        <path fill="none" stroke="currentColor" stroke-width="2" d="M62 29h11m-9 5h11m-13 5h11m-9 5h11" stroke-linejoin="round"/>
    </symbol>

    <symbol id="icon-team" viewBox="0 0 66.92 60.03" width="67" height="60">
        <g fill="currentColor">
            <path d="M45 60H0V46.69a11.37 11.37 0 0 1 11.16-11.54H18v2h-6.84A9.37 9.37 0 0 0 2 46.69V58h41V46.66A9.68 9.68 0 0 0 33.55 37H28.5v-2h5.05A11.71 11.71 0 0 1 45 46.69zM22.5 33a12.24 12.24 0 0 1-12.14-11.22l2-.16a10.18 10.18 0 0 0 20.21.69l2 .3A12.25 12.25 0 0 1 22.5 33zm12.18-19.1h-2v-1.72a10.18 10.18 0 1 0-20.36 0v1.72h-2v-1.72a12.18 12.18 0 1 1 24.36 0z"/>
            <path d="M11.32 23.5h-.86a2.72 2.72 0 0 1-2.72-2.72v-5.16a2.72 2.72 0 0 1 2.72-2.72h.86v2h-.86a.72.72 0 0 0-.72.72v5.16a.72.72 0 0 0 .72.72h.86zm23.22 0h-1.48v-2h1.48a.72.72 0 0 0 .72-.72v-5.16a.72.72 0 0 0-.72-.72h-.86v-2h.86a2.72 2.72 0 0 1 2.72 2.72v5.16a2.72 2.72 0 0 1-2.72 2.72zm-1.86-9.35A8.47 8.47 0 0 1 27.29 9c-4.3 5.69-14.68 5.08-15.17 5l.13-2c.12 0 12.16.71 14.47-6.2a1 1 0 0 1 1.95.28 7 7 0 0 0 4.66 6.12zM16.943 31.188l2-.014.04 5.79-2 .014zm10.117.012h2v5.46h-2zm9.8 6.25L36 35.64l.14-.07a4.77 4.77 0 0 1 2.74-.6h4.67v2h-4.66a3 3 0 0 0-1.89.41zM66.92 57H44.25v-2h20.67V44.58A7.59 7.59 0 0 0 57.33 37H52.5v-2h4.83a9.59 9.59 0 0 1 9.58 9.59zM47.73 33.12a10.91 10.91 0 0 1-10.59-9.29l2-.34a8.91 8.91 0 0 0 8.62 7.63 8.28 8.28 0 0 0 8.14-7l2 .3a10.29 10.29 0 0 1-10.17 8.7z"/>
            <path d="M63.58 28.07h-7.52a1 1 0 0 1-.65-1.76 4.5 4.5 0 0 0 .59-2.56v-7.59a8.31 8.31 0 0 1-4.19-4.08c-4 4.81-14.57 4.31-15.07 4.29l.11-2c3.43.18 12.69-.37 14.24-5a1 1 0 0 1 1-.68 1 1 0 0 1 .91.84 6.71 6.71 0 0 0 4.3 5 1 1 0 0 1 .68.95v8.26a8.82 8.82 0 0 1-.26 2.35h4a14.64 14.64 0 0 1-1.69-4.75 1.05 1.05 0 0 1 0-.17v-5.69a12.36 12.36 0 0 0-24.4-2.79l-1.95-.45a14.36 14.36 0 0 1 28.34 3.25v5.61a12.88 12.88 0 0 0 2.32 5.36 1 1 0 0 1-.78 1.63z"/>
            <path d="M39 28.13h-7.92v-2h6.18a9 9 0 0 1-.37-2.13v-8.3h2v8.26a4.62 4.62 0 0 0 .71 2.46 1 1 0 0 1-.6 1.71zm3.92 2.97h2v5.87h-2zm8.07-.01h2v5.95h-2zM31.08 49.97h5.79v2h-5.79zM23 44a7.13 7.13 0 0 1-7.12-7.12h2A5.13 5.13 0 0 0 23 42c3 0 5.13-2.36 5.13-5.75h2c0 4.52-3 7.75-7.13 7.75z"/>
            <path d="M48.06 44a7.2 7.2 0 0 1-7.19-7.19h2a5.19 5.19 0 0 0 10.38 0h2A7.2 7.2 0 0 1 48.06 44z"/>
        </g>
    </symbol>

</svg>